<svg width="92" height="65" viewBox="0 0 92 65" fill="none" xmlns="http://www.w3.org/2000/svg">
<path d="M18.4615 57.065C27.9427 59.6055 37.6595 54.1962 40.1218 45.0068C41.2992 40.6125 40.661 35.9974 38.3248 32.0115C35.9937 28.0346 32.2351 25.1298 27.7406 23.8317L27.6102 23.7934C26.0386 23.3227 24.3982 24.1877 23.9461 25.7102C23.4939 27.2326 24.4015 28.8428 25.973 29.3068L26.1306 29.3532C32.2949 31.1293 36 37.4629 34.3902 43.471C32.7487 49.5973 26.2708 53.2035 19.95 51.5098C13.6292 49.8162 9.82227 43.4542 11.4638 37.3279C13.5141 29.6759 17.2838 23.1181 22.6685 17.8366C26.6929 13.8889 30.1714 12.1662 30.2363 12.1345C31.6888 11.4352 32.2689 9.71389 31.5314 8.28572C31.1316 7.5119 30.4268 6.98234 29.6332 6.76967C28.9595 6.58931 28.2217 6.63693 27.5521 6.9569C27.3817 7.03837 23.3264 9.00245 18.6344 13.5483C14.357 17.6924 8.64655 24.9156 5.7322 35.7921C3.26987 44.9817 8.98025 54.5246 18.4615 57.065Z" fill="#00ABE4"/>
<path d="M60.6997 57.0943C70.1809 59.6348 79.8977 54.2256 82.3601 45.036C83.5375 40.6417 82.8993 36.0266 80.5631 32.0405C78.2321 28.0636 74.4734 25.1589 69.9789 23.8607L69.8485 23.8223C68.2805 23.3526 66.6365 24.2166 66.1845 25.7391C65.7323 27.2615 66.6399 28.8718 68.2114 29.3357L68.3689 29.3821C74.5332 31.1586 78.2383 37.4921 76.6285 43.5002C74.9869 49.6265 68.5091 53.2328 62.1883 51.5391C55.8674 49.8455 52.0606 43.4834 53.7021 37.3571C55.7524 29.7051 59.5221 23.1473 64.9068 17.8659C68.9312 13.9183 72.4097 12.1955 72.4745 12.1638C73.9273 11.4644 74.5072 9.74319 73.7697 8.31501C73.3699 7.54105 72.6651 7.01163 71.8714 6.79896C71.1978 6.61847 70.46 6.66608 69.7903 6.98601C69.6201 7.06753 65.5646 9.03158 60.8726 13.5775C56.5953 17.7216 50.8849 24.9447 47.9705 35.8214C45.5081 45.0109 51.2185 54.5538 60.6997 57.0943Z" fill="#00ABE4"/>
</svg>
