<svg width="36" height="36" viewBox="0 0 36 36" fill="none" xmlns="http://www.w3.org/2000/svg">
<path d="M6.81641 15.0397C8.1766 14.7357 9.81123 14.4283 11.6479 14.1934V11.1859C11.6479 7.68199 14.4985 4.83138 18.0024 4.83138C21.5062 4.83138 24.3568 7.68199 24.3568 11.1859V14.1934C26.1935 14.4283 27.8281 14.7357 29.1883 15.0397V11.1859C29.1883 5.01799 24.1703 0 18.0024 0C11.8344 0 6.81641 5.01799 6.81641 11.1859V15.0397Z" fill="#99D9FD"/>
<path d="M18.0008 22.4529C17.2745 22.4529 16.6836 23.0438 16.6836 23.7701C16.6836 24.4965 17.2745 25.0874 18.0008 25.0874C18.7272 25.0874 19.3181 24.4965 19.3181 23.7701C19.3181 23.0438 18.7272 22.4529 18.0008 22.4529Z" fill="#00A0FB"/>
<path d="M18.0006 15.8896C11.3714 15.8896 5.84907 17.3922 3.95703 17.975V33.9142C5.85195 34.4965 11.3863 36.0001 18.0006 36.0001C24.6298 36.0001 30.1522 34.4975 32.0441 33.9147V17.9755C30.1493 17.3932 24.6151 15.8896 18.0006 15.8896ZM19.0553 27.0301V30.4914H16.9459V27.0301C15.5711 26.5842 14.574 25.2918 14.574 23.7702C14.574 21.8808 16.1112 20.3436 18.0006 20.3436C19.8901 20.3436 21.4272 21.8808 21.4272 23.7702C21.4273 25.2918 20.4302 26.5842 19.0553 27.0301Z" fill="#00A0FB"/>
</svg>
