<svg width="43" height="43" viewBox="0 0 43 43" fill="none" xmlns="http://www.w3.org/2000/svg">
<g clip-path="url(#clip0_556_1849)">
<path d="M21.5 6.19379C20.7582 6.19379 20.1562 5.59179 20.1562 4.85004V1.34375C20.1562 0.602 20.7582 0 21.5 0C22.2418 0 22.8438 0.602 22.8438 1.34375V4.85004C22.8438 5.59179 22.2418 6.19379 21.5 6.19379Z" fill="#C7EAFE"/>
<path d="M33.273 11.0706C32.929 11.0706 32.585 10.9398 32.3234 10.6764C31.7984 10.1515 31.7984 9.30044 32.3234 8.77548L34.8031 6.29582C35.328 5.77086 36.1791 5.77086 36.704 6.29582C37.229 6.82078 37.229 7.67182 36.704 8.19678L34.2244 10.6764C33.961 10.938 33.617 11.0706 33.273 11.0706Z" fill="#C7EAFE"/>
<path d="M41.6547 22.8438H38.1484C37.4067 22.8438 36.8047 22.2418 36.8047 21.5C36.8047 20.7582 37.4067 20.1562 38.1484 20.1562H41.6547C42.3965 20.1562 42.9985 20.7582 42.9985 21.5C42.9985 22.2418 42.3965 22.8438 41.6547 22.8438Z" fill="#C7EAFE"/>
<path d="M35.7527 37.0965C35.4087 37.0965 35.0647 36.9657 34.8031 36.7023L32.3234 34.2227C31.7984 33.6977 31.7984 32.8467 32.3234 32.3217C32.8484 31.7967 33.6994 31.7967 34.2244 32.3217L36.704 34.8014C37.229 35.3263 37.229 36.1774 36.704 36.7023C36.4407 36.9657 36.0967 37.0965 35.7527 37.0965Z" fill="#C7EAFE"/>
<path d="M7.24565 37.0965C6.90165 37.0965 6.55765 36.9657 6.29606 36.7023C5.7711 36.1774 5.7711 35.3263 6.29606 34.8014L8.77573 32.3217C9.30069 31.7967 10.1517 31.7967 10.6767 32.3217C11.2016 32.8467 11.2016 33.6977 10.6767 34.2227L8.19702 36.7023C7.93365 36.9657 7.58965 37.0965 7.24565 37.0965Z" fill="#C7EAFE"/>
<path d="M4.85004 22.8438H1.34375C0.602 22.8438 0 22.2418 0 21.5C0 20.7582 0.602 20.1562 1.34375 20.1562H4.85004C5.59179 20.1562 6.19379 20.7582 6.19379 21.5C6.19379 22.2418 5.59179 22.8438 4.85004 22.8438Z" fill="#C7EAFE"/>
<path d="M9.72531 11.0706C9.38131 11.0706 9.03731 10.9398 8.77573 10.6764L6.29606 8.19678C5.7711 7.67182 5.7711 6.82078 6.29606 6.29582C6.82102 5.77086 7.67206 5.77086 8.19702 6.29582L10.6767 8.77548C11.2016 9.30044 11.2016 10.1515 10.6767 10.6764C10.4115 10.938 10.0693 11.0706 9.72531 11.0706Z" fill="#C7EAFE"/>
<path d="M26.875 37.625V39.8646C26.875 41.5846 25.4596 43 23.7396 43H19.2604C17.7554 43 16.125 41.8533 16.125 39.345V37.625H26.875Z" fill="#C7EAFE"/>
<path d="M29.4023 11.7532C26.4639 9.37032 22.5939 8.43865 18.8135 9.2449C14.0656 10.2303 10.2135 14.1003 9.22808 18.8482C8.22475 23.7216 10.0522 28.5591 13.9581 31.5153C15.0152 32.3037 15.7498 33.522 16.0006 34.9374V34.9553C16.0364 34.9374 16.0902 34.9374 16.126 34.9374H26.876C26.9118 34.9374 26.9298 34.9374 26.9656 34.9553V34.9374C27.2164 33.5757 28.0227 32.3216 29.2589 31.3541C32.2868 28.9532 34.0427 25.3699 34.0427 21.4999C34.0427 17.7016 32.3585 14.1541 29.4023 11.7532ZM28.2197 22.3957C27.4852 22.3957 26.876 21.7866 26.876 21.052C26.876 18.3287 24.6723 16.1249 21.9489 16.1249C21.2143 16.1249 20.6052 15.5157 20.6052 14.7812C20.6052 14.0466 21.2143 13.4374 21.9489 13.4374C26.1414 13.4374 29.5635 16.8595 29.5635 21.052C29.5635 21.7866 28.9543 22.3957 28.2197 22.3957Z" fill="#00A0FB"/>
<path d="M16 34.9375H16.1254C16.0896 34.9375 16.0358 34.9375 16 34.9554V34.9375Z" fill="#C7EAFE"/>
<path d="M26.9646 34.9375V34.9554C26.9288 34.9375 26.9108 34.9375 26.875 34.9375H26.9646Z" fill="#C7EAFE"/>
</g>
<defs>
<clipPath id="clip0_556_1849">
<rect width="43" height="43" fill="white"/>
</clipPath>
</defs>
</svg>
