<svg width="40" height="40" viewBox="0 0 40 40" fill="none" xmlns="http://www.w3.org/2000/svg">
<g clip-path="url(#clip0_556_1882)">
<path d="M4.70351 26.019L0.0442171 30.6783C-0.0341422 30.753 -0.00484536 30.8881 0.104373 30.9205L5.71594 32.6251C6.51203 32.8673 7.13234 33.4876 7.37445 34.2837L9.07906 39.8952C9.1114 40.0044 9.24656 40.0337 9.32125 39.9554L15.5555 33.7211C10.9429 32.5754 7.13484 29.6997 4.70351 26.019Z" fill="#99D9FD"/>
<path d="M39.9567 30.6783L35.2974 26.019C32.8834 29.6734 29.0872 32.5681 24.4453 33.7212L30.6795 39.9554C30.7542 40.0338 30.8894 40.0045 30.9217 39.8953L32.6263 34.2837C32.8685 33.4876 33.4888 32.8673 34.2849 32.6252L39.8965 30.9206C40.006 30.888 40.0349 30.7528 39.9567 30.6783Z" fill="#99D9FD"/>
<path d="M35.9594 15.9584C35.9594 7.15946 28.8009 0.000244141 20.0012 0.000244141C11.2014 0.000244141 4.04297 7.15946 4.04297 15.9584C4.04297 23.9143 9.9007 30.5452 17.5489 31.7292C27.237 33.2362 35.9594 25.6954 35.9594 15.9584ZM7.56164 19.8474C4.92984 11.4333 11.2653 2.92751 20.0012 2.92751C29.76 2.92751 36.2102 13.4157 31.4532 22.1747C25.9615 32.249 11.018 30.8416 7.56164 19.8474Z" fill="#00A0FB"/>
<path d="M20.0005 5.271C14.1077 5.271 9.3125 10.0654 9.3125 15.9583C9.3125 24.6279 19.142 29.6839 26.1809 24.6729C27.689 23.6024 28.9171 22.139 29.7073 20.4292C32.991 13.36 27.7564 5.271 20.0005 5.271ZM25.3949 14.4591C25.2615 14.5582 18.7683 19.3775 18.731 19.4051C18.262 19.7547 17.5948 19.7078 17.1779 19.2661C14.1953 16.0875 14.4339 16.3413 14.3623 16.2662C13.8612 15.7325 13.9658 14.8693 14.5928 14.4725C14.5936 14.4717 14.5944 14.4709 14.5952 14.4709C15.0608 14.1787 15.6819 14.2467 16.0717 14.6623C16.7024 15.3345 16.2779 14.8821 18.1724 16.9005C18.3766 16.7483 20.7796 14.9656 24.0855 12.5123C24.6051 12.1264 25.3395 12.235 25.7245 12.7545C26.0775 13.2283 26.0763 13.9543 25.3949 14.4591Z" fill="#00A0FB"/>
</g>
<defs>
<clipPath id="clip0_556_1882">
<rect width="40" height="40" fill="white"/>
</clipPath>
</defs>
</svg>
