<svg width="36" height="36" viewBox="0 0 36 36" fill="none" xmlns="http://www.w3.org/2000/svg">
<path d="M3 9.31579C3 6.3385 3 4.84984 3.98851 3.92493C4.97703 3 6.56802 3 9.75 3C12.932 3 14.523 3 15.5115 3.92493C16.5 4.84984 16.5 6.3385 16.5 9.31579V26.6842C16.5 29.6614 16.5 31.1502 15.5115 32.0751C14.523 33 12.932 33 9.75 33C6.56802 33 4.97703 33 3.98851 32.0751C3 31.1502 3 29.6614 3 26.6842V9.31579Z" fill="#00A0FB"/>
<path d="M19.5 23.1C19.5 19.9887 19.5 18.433 20.4885 17.4666C21.477 16.5 23.068 16.5 26.25 16.5C29.4319 16.5 31.023 16.5 32.0115 17.4666C33 18.433 33 19.9887 33 23.1V26.4C33 29.5113 33 31.067 32.0115 32.0334C31.023 33 29.4319 33 26.25 33C23.068 33 21.477 33 20.4885 32.0334C19.5 31.067 19.5 29.5113 19.5 26.4V23.1Z" fill="#99D9FD"/>
<path d="M19.5 8.25C19.5 6.6192 19.5 5.8038 19.7569 5.16061C20.0994 4.303 20.7564 3.62164 21.5835 3.26641C22.2036 3 22.9899 3 24.5625 3H27.9375C29.5101 3 30.2964 3 30.9165 3.26641C31.7436 3.62164 32.4006 4.303 32.743 5.16061C33 5.8038 33 6.6192 33 8.25C33 9.8808 33 10.6962 32.743 11.3394C32.4006 12.197 31.7436 12.8784 30.9165 13.2336C30.2964 13.5 29.5101 13.5 27.9375 13.5H24.5625C22.9899 13.5 22.2036 13.5 21.5835 13.2336C20.7564 12.8784 20.0994 12.197 19.7569 11.3394C19.5 10.6962 19.5 9.8808 19.5 8.25Z" fill="#00A0FB"/>
</svg>
