<svg width="18" height="18" viewBox="0 0 18 18" fill="none" xmlns="http://www.w3.org/2000/svg">
<path d="M15 8.81256H3C2.85082 8.81256 2.70774 8.75329 2.60225 8.64781C2.49676 8.54232 2.4375 8.39924 2.4375 8.25006C2.4375 8.10087 2.49676 7.9578 2.60225 7.85231C2.70774 7.74682 2.85082 7.68756 3 7.68756H14.4375V5.25006C14.4375 5.20033 14.4177 5.15264 14.3826 5.11748C14.3474 5.08231 14.2997 5.06256 14.25 5.06256H9.405C9.19029 5.06613 8.97802 5.01666 8.78701 4.91854C8.596 4.82041 8.43215 4.67667 8.31 4.50006L7.2525 2.89506C7.23564 2.86885 7.21226 2.84747 7.18465 2.833C7.15704 2.81854 7.12615 2.8115 7.095 2.81256H3.75C3.70027 2.81256 3.65258 2.83231 3.61742 2.86748C3.58225 2.90264 3.5625 2.95033 3.5625 3.00006V6.00006C3.5625 6.14924 3.50324 6.29232 3.39775 6.39781C3.29226 6.50329 3.14918 6.56256 3 6.56256C2.85082 6.56256 2.70774 6.50329 2.60225 6.39781C2.49676 6.29232 2.4375 6.14924 2.4375 6.00006V3.00006C2.43947 2.65257 2.57838 2.31987 2.8241 2.07416C3.06981 1.82844 3.40251 1.68953 3.75 1.68756H7.095C7.30971 1.68399 7.52198 1.73346 7.71299 1.83158C7.904 1.9297 8.06785 2.07344 8.19 2.25006L9.2475 3.83256C9.26436 3.85877 9.28774 3.88015 9.31535 3.89461C9.34296 3.90907 9.37385 3.91612 9.405 3.91506H14.25C14.424 3.91604 14.5961 3.9514 14.7563 4.01911C14.9166 4.08683 15.0619 4.18556 15.1839 4.30962C15.3058 4.43369 15.4021 4.58065 15.4671 4.74204C15.532 4.90344 15.5645 5.07608 15.5625 5.25006V8.25006C15.5606 8.39864 15.5007 8.54059 15.3956 8.64566C15.2905 8.75073 15.1486 8.81062 15 8.81256Z" fill="#9AD9FD"/>
<path d="M14.3862 16.3125H3.61621C3.31232 16.3117 3.01802 16.206 2.78301 16.0134C2.54799 15.8207 2.38664 15.5529 2.32621 15.255L1.12621 9.25503C1.08865 9.06453 1.09407 8.86806 1.14208 8.67992C1.19009 8.49179 1.27947 8.31674 1.40371 8.16753C1.52552 8.01653 1.67982 7.89496 1.85512 7.81185C2.03043 7.72875 2.22221 7.68625 2.41621 7.68753H15.5862C15.7802 7.68625 15.972 7.72875 16.1473 7.81185C16.3226 7.89496 16.4769 8.01653 16.5987 8.16753C16.723 8.31674 16.8123 8.49179 16.8603 8.67992C16.9084 8.86806 16.9138 9.06453 16.8762 9.25503L15.6762 15.255C15.6158 15.5529 15.4544 15.8207 15.2194 16.0134C14.9844 16.206 14.6901 16.3117 14.3862 16.3125ZM2.38621 8.81253C2.35889 8.81223 2.33187 8.81815 2.30718 8.82984C2.28249 8.84154 2.26079 8.8587 2.24371 8.88003C2.22478 8.90116 2.2109 8.92632 2.2031 8.9536C2.19531 8.98089 2.19381 9.00958 2.19871 9.03753L3.39871 15.0375C3.40875 15.0799 3.43266 15.1176 3.46664 15.1448C3.50061 15.172 3.5427 15.187 3.58621 15.1875H14.3862C14.4297 15.187 14.4718 15.172 14.5058 15.1448C14.5398 15.1176 14.5637 15.0799 14.5737 15.0375L15.7737 9.03753C15.7786 9.00958 15.7771 8.98089 15.7693 8.9536C15.7615 8.92632 15.7476 8.90116 15.7287 8.88003C15.7116 8.8587 15.6899 8.84154 15.6652 8.82984C15.6406 8.81815 15.6135 8.81223 15.5862 8.81253H2.38621Z" fill="#00A0FB"/>
</svg>
