<svg width="20" height="20" viewBox="0 0 20 20" fill="none" xmlns="http://www.w3.org/2000/svg">
<path fill-rule="evenodd" clip-rule="evenodd" d="M18.9596 13.75V3.74996C18.9596 2.94413 18.3063 2.29163 17.5013 2.29163C14.6563 2.29163 5.3463 2.29163 2.5013 2.29163C1.6963 2.29163 1.04297 2.94413 1.04297 3.74996V13.75C1.04297 14.5558 1.6963 15.2083 2.5013 15.2083H17.5013C18.3063 15.2083 18.9596 14.5558 18.9596 13.75ZM17.7096 3.74996V13.75C17.7096 13.865 17.6163 13.9583 17.5013 13.9583H2.5013C2.3863 13.9583 2.29297 13.865 2.29297 13.75V3.74996C2.29297 3.63496 2.3863 3.54163 2.5013 3.54163H17.5013C17.6163 3.54163 17.7096 3.63496 17.7096 3.74996Z" fill="#00A0FB"/>
<path fill-rule="evenodd" clip-rule="evenodd" d="M14.1693 16.4583H5.83594C5.49094 16.4583 5.21094 16.7383 5.21094 17.0833C5.21094 17.4283 5.49094 17.7083 5.83594 17.7083H14.1693C14.5143 17.7083 14.7943 17.4283 14.7943 17.0833C14.7943 16.7383 14.5143 16.4583 14.1693 16.4583Z" fill="#9AD9FD"/>
</svg>
