<svg width="64" height="64" viewBox="0 0 64 64" fill="none" xmlns="http://www.w3.org/2000/svg">
<g clip-path="url(#clip0_607_647)">
<path d="M64.001 43.3125C64.001 35.3706 59.4448 28.2827 52.6211 24.835C52.4092 40.0625 40.0635 52.4082 24.8359 52.6201C28.2837 59.4438 35.3716 64 43.3135 64C47.0371 64 50.6582 63.0083 53.8398 61.124L63.9106 63.9097L61.125 53.8389C63.0093 50.6572 64.001 47.0361 64.001 43.3125Z" fill="#99D9FD"/>
<path d="M48.875 24.4375C48.875 10.9624 37.9126 0 24.4375 0C10.9624 0 0 10.9624 0 24.4375C0 28.8291 1.16895 33.105 3.38867 36.8589L0.0898438 48.7847L12.0161 45.4863C15.77 47.7061 20.0459 48.875 24.4375 48.875C37.9126 48.875 48.875 37.9126 48.875 24.4375ZM20.6875 18.75H16.9375C16.9375 14.6143 20.3018 11.25 24.4375 11.25C28.5732 11.25 31.9375 14.6143 31.9375 18.75C31.9375 20.8491 31.0488 22.8667 29.4985 24.2847L26.3125 27.2007V30.125H22.5625V25.5493L26.9668 21.5181C27.7539 20.7979 28.1875 19.8149 28.1875 18.75C28.1875 16.6821 26.5054 15 24.4375 15C22.3696 15 20.6875 16.6821 20.6875 18.75ZM22.5625 33.875H26.3125V37.625H22.5625V33.875Z" fill="#00A0FB"/>
</g>
<defs>
<clipPath id="clip0_607_647">
<rect width="64" height="64" fill="white"/>
</clipPath>
</defs>
</svg>
