<svg width="22" height="22" viewBox="0 0 22 22" fill="none" xmlns="http://www.w3.org/2000/svg">
<path d="M17.4661 16.8146C17.342 16.8146 17.2158 16.7809 17.1024 16.7101C15.9395 15.9838 14.5232 15.5379 12.6453 15.3066C9.72552 14.9467 6.90471 15.4575 4.90374 16.7101C4.58268 16.9116 4.15815 16.8139 3.95637 16.4922C3.75493 16.1701 3.85256 15.7462 4.17465 15.5448C6.43824 14.1282 9.58631 13.5438 12.8134 13.9422C14.8976 14.199 16.4916 14.7081 17.8308 15.5445C18.1529 15.7456 18.2509 16.1697 18.0498 16.4918C17.9195 16.6998 17.6954 16.8143 17.4661 16.8146Z" fill="#00A0FB"/>
<path d="M10.8376 8.18095C8.32784 8.18095 5.97246 7.58077 4.17465 6.45567C3.85256 6.25423 3.75493 5.83005 3.95637 5.5083C4.15815 5.1862 4.58268 5.08858 4.90374 5.29036C6.90506 6.54264 9.72724 7.05345 12.645 6.69389C14.5232 6.4622 15.9395 6.01602 17.1024 5.29002C17.4252 5.08858 17.849 5.18689 18.0498 5.50898C18.2509 5.83108 18.1529 6.25492 17.8308 6.45602C16.4916 7.29202 14.8976 7.80145 12.8134 8.05858C12.1497 8.14073 11.4883 8.18095 10.8376 8.18095Z" fill="#00A0FB"/>
<path d="M11.0273 19.9326C10.2178 19.9326 9.41996 19.593 8.72146 18.9505C7.51559 17.8419 6.95906 16.2686 6.60878 15.0218C6.24853 13.7403 6.08353 12.3061 6.10312 10.6369C6.121 9.13093 6.36918 7.61981 6.8219 6.26784C7.40868 4.51334 8.20859 3.31881 9.267 2.61618C9.8115 2.2549 10.4117 2.06343 11.0033 2.06274C12.5429 2.06446 13.5866 3.25762 14.0716 3.96815C14.8272 5.07537 15.3356 6.42184 15.6707 8.20556C16.2417 11.2464 15.8866 14.434 14.6955 16.9502C14.1967 18.0041 13.303 19.3544 11.8795 19.8013C11.6017 19.8882 11.3151 19.9326 11.0273 19.9326ZM11.0033 3.4374C10.6839 3.43774 10.3464 3.54981 10.0274 3.76156C9.23365 4.28818 8.61181 5.25034 8.12575 6.70371C7.71806 7.92231 7.49428 9.28802 7.47812 10.6531C7.45956 12.1893 7.6084 13.4966 7.93256 14.6498C8.23368 15.7216 8.70118 17.064 9.652 17.9385C10.2285 18.4682 10.8806 18.6738 11.4673 18.4895C12.4171 18.1915 13.0709 17.1681 13.4525 16.3624C14.5219 14.1022 14.8378 11.2216 14.3191 8.45959C14.0204 6.8694 13.5807 5.68828 12.9355 4.74331C12.6681 4.35074 11.9438 3.43843 11.0033 3.4374Z" fill="#00A0FB"/>
<path d="M11.0039 19.9375C10.6244 19.9375 10.3164 19.6295 10.3164 19.25V2.75C10.3164 2.3705 10.6244 2.0625 11.0039 2.0625C11.3834 2.0625 11.6914 2.3705 11.6914 2.75V19.25C11.6914 19.6295 11.3834 19.9375 11.0039 19.9375Z" fill="#00A0FB"/>
<path d="M19.2539 11.6875H2.75391C2.37441 11.6875 2.06641 11.3795 2.06641 11C2.06641 10.6205 2.37441 10.3125 2.75391 10.3125H19.2539C19.6334 10.3125 19.9414 10.6205 19.9414 11C19.9414 11.3795 19.6334 11.6875 19.2539 11.6875Z" fill="#00A0FB"/>
<path d="M10.9819 19.9341C10.9816 19.9341 10.9816 19.9341 10.9812 19.9341C10.1999 19.9341 9.42472 19.8324 8.67775 19.6313C5.45922 18.7654 2.9385 16.0989 2.2565 12.8377C1.56213 9.51539 2.84466 6.02288 5.52385 3.9401C7.07313 2.73595 9.02666 2.07251 11.0252 2.07251C12.4088 2.07251 13.7828 2.39426 14.999 3.00235C18.0016 4.50488 19.9424 7.64401 19.9424 11C19.9424 13.7384 18.6503 16.3777 16.486 18.06C14.9316 19.2686 12.9763 19.9341 10.9819 19.9341ZM11.0249 3.44751C9.33054 3.44751 7.67641 4.00782 6.36741 5.02567C4.09969 6.78807 3.01447 9.74432 3.60229 12.5562C4.1791 15.3148 6.31172 17.5708 9.03491 18.3034C9.66535 18.4728 10.3202 18.5591 10.9816 18.5591C12.6721 18.5591 14.3273 17.9964 15.6421 16.9744C17.4736 15.5506 18.5674 13.3169 18.5674 11C18.5674 8.16032 16.9253 5.50382 14.3837 4.23229C13.3579 3.71907 12.1964 3.44751 11.0249 3.44751Z" fill="#00A0FB"/>
</svg>
