<svg width="72" height="72" viewBox="0 0 72 72" fill="none" xmlns="http://www.w3.org/2000/svg">
<path d="M53.1788 32.3551C54.7538 28.5076 54.99 24.2326 53.8538 20.2276C51.0075 10.2601 40.1625 4.46636 30.2963 7.65011C20.1488 10.9239 14.7825 22.4889 18.8213 32.3551C22.4213 41.0289 30.6563 46.5189 36 54.0001C41.3438 46.5189 49.5788 41.0289 53.1788 32.3551ZM26.4375 25.3126C26.4375 20.1039 30.7913 15.7501 36 15.7501C41.2088 15.7501 45.5625 20.1039 45.5625 25.3126C45.5625 30.5214 41.2088 34.8751 36 34.8751C30.7913 34.8751 26.4375 30.5214 26.4375 25.3126Z" fill="#00A0FB"/>
<path d="M57.1391 57.5102C56.6103 56.3515 55.3728 55.564 54.2928 55.0127C52.2678 53.9665 50.0741 53.3815 47.8691 52.8865C50.1528 54.6077 47.7116 56.3627 45.9116 57.0265C41.6928 58.579 36.7428 58.804 32.3103 58.3315C29.6216 58.039 26.0778 57.7127 23.9403 55.8452C22.8491 54.8777 22.9953 53.7415 24.1316 52.8865C21.3866 53.5052 18.3266 54.2365 16.0878 56.0477C14.5803 57.2627 14.1303 58.9502 15.5253 60.4352C16.7178 61.7177 18.4616 62.404 20.0703 63.0002C22.2191 63.799 24.5141 64.2377 26.7641 64.5865C31.5003 65.3065 36.3266 65.3965 41.0966 65.0477C45.4728 64.7215 50.2316 64.0802 54.1803 62.044C55.7666 61.234 58.1178 59.614 57.1391 57.5102Z" fill="#99D9FD"/>
</svg>
