<svg width="72" height="72" viewBox="0 0 72 72" fill="none" xmlns="http://www.w3.org/2000/svg">
<path d="M32.1924 36.4893C33.2668 37.3688 34.6125 37.8494 36.001 37.8494C37.3895 37.8494 38.7352 37.3688 39.8096 36.4893L66.1621 14.842C65.0478 13.4897 63.6493 12.3995 62.0659 11.6491C60.4825 10.8986 58.7532 10.5063 57.001 10.5H15.001C13.2488 10.5063 11.5195 10.8986 9.93606 11.6491C8.35268 12.3995 6.95411 13.4897 5.83984 14.842L32.1924 36.4893Z" fill="#99D9FD"/>
<path d="M43.6172 41.1269C41.4676 42.8843 38.7765 43.8443 36 43.8443C33.2235 43.8443 30.5324 42.8843 28.3828 41.1269L3.20802 20.4468C3.07915 21.1238 3.00954 21.8108 3 22.4999V49.5C3.00339 52.6815 4.26876 55.7318 6.51846 57.9815C8.76817 60.2312 11.8184 61.4966 15 61.5H57C60.1816 61.4966 63.2318 60.2312 65.4815 57.9815C67.7312 55.7318 68.9966 52.6815 69 49.5V22.4999C68.9905 21.8108 68.9209 21.1238 68.792 20.4468L43.6172 41.1269Z" fill="#00A0FB"/>
</svg>
