<svg width="19" height="19" viewBox="0 0 19 19" fill="none" xmlns="http://www.w3.org/2000/svg">
<path d="M9.5 14.6465V12.123M15.9746 14.6797V13.4512C15.9746 12.7177 15.38 12.123 14.6465 12.123H12.123M3.02539 14.6797V13.4512C3.02539 12.7177 3.62003 12.123 4.35352 12.123H6.87695M11.127 9.63281H7.87305M8.17188 16.0078C8.17188 16.7413 8.76651 17.3359 9.5 17.3359C10.2335 17.3359 10.8281 16.7413 10.8281 16.0078C10.8281 15.2743 10.2335 14.6797 9.5 14.6797C8.76651 14.6797 8.17188 15.2743 8.17188 16.0078ZM13.4512 5.64844V3.32422C13.4512 2.40735 12.7079 1.66406 11.791 1.66406H7.20898C6.29211 1.66406 5.54883 2.40735 5.54883 3.32422V5.64844C5.54883 6.56531 6.29211 7.30859 7.20898 7.30859H11.791C12.7079 7.30859 13.4512 6.56531 13.4512 5.64844ZM2.99219 14.6797C3.72568 14.6797 4.32031 15.2743 4.32031 16.0078C4.32031 16.7413 3.72568 17.3359 2.99219 17.3359C2.2587 17.3359 1.66406 16.7413 1.66406 16.0078C1.66406 15.2743 2.2587 14.6797 2.99219 14.6797ZM16.0078 14.6797C16.7413 14.6797 17.3359 15.2743 17.3359 16.0078C17.3359 16.7413 16.7413 17.3359 16.0078 17.3359C15.2743 17.3359 14.6797 16.7413 14.6797 16.0078C14.6797 15.2743 15.2743 14.6797 16.0078 14.6797Z" stroke="#00A0FB" stroke-width="1.5" stroke-miterlimit="10" stroke-linecap="round" stroke-linejoin="round"/>
</svg>
