<svg width="24" height="24" viewBox="0 0 24 24" fill="none" xmlns="http://www.w3.org/2000/svg">
<path d="M18 20H12C10.3 20 9 18.7 9 17V7C9 5.3 10.3 4 12 4H18C19.7 4 21 5.3 21 7V17C21 18.7 19.7 20 18 20ZM12 6C11.4 6 11 6.4 11 7V17C11 17.6 11.4 18 12 18H18C18.6 18 19 17.6 19 17V7C19 6.4 18.6 6 18 6H12Z" fill="#00A0FB"/>
<path d="M7 18C6.4 18 6 17.6 6 17V7C6 6.4 6.4 6 7 6C7.6 6 8 6.4 8 7V17C8 17.6 7.6 18 7 18Z" fill="#9AD9FD"/>
<path d="M4 17C3.4 17 3 16.6 3 16V8C3 7.4 3.4 7 4 7C4.6 7 5 7.4 5 8V16C5 16.6 4.6 17 4 17Z" fill="#9AD9FD"/>
</svg>
