<svg width="64" height="64" viewBox="0 0 64 64" fill="none" xmlns="http://www.w3.org/2000/svg">
<path d="M39.4902 50.6222H9.66956V7.85205H39.482V11.0516H43.4891V6.97863C43.4918 3.14192 40.3416 0 36.5076 0H12.6494C8.80989 0 5.66797 3.14192 5.66797 6.97863V57.0186C5.66797 60.8609 8.80989 64 12.6494 64H36.5076C40.3416 64 43.4918 60.8609 43.4918 57.0186V50.548H39.4902V50.6222ZM24.5743 60.5065C22.8056 60.5065 21.3775 59.0757 21.3775 57.3098C21.3775 55.5383 22.8057 54.1102 24.5743 54.1102C26.3458 54.1102 27.7767 55.541 27.7767 57.3098C27.7767 59.0757 26.3459 60.5065 24.5743 60.5065Z" fill="#00A0FB"/>
<path d="M22.031 12.1447H13.0859V17.5992H22.031V12.1447Z" fill="#00A0FB"/>
<path d="M22.031 26.1102H13.0859V31.5647H22.031V26.1102Z" fill="#00A0FB"/>
<path d="M22.031 40.7267H13.0859V46.1784H22.031V40.7267Z" fill="#00A0FB"/>
<path d="M53.7795 28.5079C53.4636 26.8545 52.8237 25.3248 51.9175 23.9873L55.1253 20.7767L51.8488 17.5112L48.6464 20.7162C47.3144 19.8045 45.7765 19.1727 44.1286 18.8542V14.3088H39.4926V18.8542C37.842 19.1727 36.3178 19.8072 34.9721 20.7162L31.7753 17.5112L28.4988 20.7794L31.7012 23.9899C30.7976 25.3274 30.1605 26.8572 29.8446 28.5078H25.3047V33.141H29.8445C30.1604 34.7862 30.8003 36.3159 31.7037 37.6589L28.4987 40.864L31.7752 44.1267L34.9802 40.9243C36.3206 41.8361 37.8502 42.4705 39.5008 42.7919V47.329H44.1367V42.7892C45.7845 42.4733 47.3116 41.8334 48.6546 40.9271L51.857 44.1295L55.1335 40.864L51.9256 37.6589C52.8319 36.3214 53.4691 34.789 53.7877 33.1384H58.3303V28.5079H53.7795ZM41.8161 35.8656C39.0286 35.8656 36.7654 33.6135 36.7654 30.8232C36.7654 28.0356 39.0284 25.7698 41.8161 25.7698C44.6065 25.7698 46.8586 28.0328 46.8586 30.8232C46.8586 33.6162 44.6009 35.8656 41.8161 35.8656Z" fill="#99D9FD"/>
</svg>
