<svg width="64" height="64" viewBox="0 0 64 64" fill="none" xmlns="http://www.w3.org/2000/svg">
<g clip-path="url(#clip0_556_1327)">
<path d="M62.9976 30.1082C62.933 30.0649 62.8665 30.025 62.7978 29.9886L58.2561 27.5429L33.0698 40.8778C32.4007 41.2321 31.5995 41.2321 30.9304 40.8778L5.74423 27.5429L1.20244 29.9886C0.0986064 30.5745 -0.321393 31.9443 0.264544 33.0482C0.300972 33.1167 0.340883 33.1834 0.384142 33.248L32.0001 49.9862L63.6161 33.248C64.3124 32.2102 64.0355 30.8045 62.9976 30.1082Z" fill="#99D9FD"/>
<path d="M63.7216 44.6286C63.5099 44.2363 63.1881 43.9145 62.7959 43.7029L58.2543 41.2572L33.0679 54.5921C32.3988 54.9464 31.5977 54.9464 30.9286 54.5921L5.74225 41.2572L1.20047 43.7029C0.0895322 44.3025 -0.324842 45.689 0.274755 46.8C0.486496 47.1922 0.808326 47.5141 1.20047 47.7257L30.9148 63.7257C31.5911 64.0899 32.4053 64.0899 33.0816 63.7257L62.7959 47.7257C63.9067 47.1261 64.3212 45.7395 63.7216 44.6286Z" fill="#00A0FB"/>
<path d="M62.9976 16.3939C62.933 16.3506 62.8665 16.3107 62.7978 16.2743L33.0836 0.274273C32.4072 -0.0898782 31.5931 -0.0898782 30.9168 0.274273L1.20244 16.2743C0.0986064 16.8602 -0.321393 18.2301 0.264544 19.3339C0.300972 19.4025 0.340883 19.4692 0.384142 19.5337L32.0001 36.272L63.6161 19.5337C64.3124 18.4959 64.0355 17.0902 62.9976 16.3939Z" fill="#00A0FB"/>
</g>
<defs>
<clipPath id="clip0_556_1327">
<rect width="64" height="64" fill="white"/>
</clipPath>
</defs>
</svg>
