<svg width="70" height="70" viewBox="0 0 70 70" fill="none" xmlns="http://www.w3.org/2000/svg">
<path d="M63.8477 20.6445C43.4179 20.6445 25.922 20.6445 6.15234 20.6445C2.7598 20.6445 0 23.4043 0 26.7969V43.2031C0 46.5957 2.7598 49.3555 6.15234 49.3555H7.72748H62.2725H63.8477C67.2402 49.3555 70 46.5957 70 43.2031V26.7969C70 23.4043 67.2402 20.6445 63.8477 20.6445ZM65.6822 31.8157L61.5806 40.0188C60.8248 41.5261 58.6674 41.5261 57.9116 40.0188L55.6445 35.4847L53.3775 40.0188C52.6051 41.5592 49.7202 41.4724 49.3907 39.3835L45.779 32.1582C45.5427 31.868 45.408 31.5036 45.3642 31.1145C45.3389 31.3515 45.2871 31.5898 45.1742 31.8157L41.0726 40.0188C40.3169 41.5261 38.1594 41.5261 37.4037 40.0188L35.1367 35.4847L32.5962 40.0188C31.8992 41.4087 29.6242 41.4087 28.9272 40.0188C28.6129 39.3902 24.7186 31.774 24.6429 31.141C24.5913 31.5829 24.4245 31.9856 24.1546 32.2923C23.7973 33.0069 20.4596 39.9279 19.9004 40.4463C18.7478 41.6782 17.1948 41.1604 16.6224 40.0188L14.3555 35.4847L12.0884 40.0188C11.3326 41.5261 9.1752 41.5261 8.41941 40.0188L4.31785 31.8157C3.10598 29.3921 6.77113 27.5595 7.98684 29.9812L10.2539 34.5153L12.521 29.9812C13.2599 28.5034 15.453 28.5175 16.19 29.9812L18.457 34.5153L20.7241 29.9812C21.6359 28.1576 24.545 28.6657 24.6379 30.8354C24.7114 28.6595 27.5588 28.1169 28.4946 29.9812L30.7617 34.5153L33.0288 29.9812C33.7258 28.5913 36.2742 28.5913 36.9712 29.9812L39.2383 34.5153L41.5054 29.9812C42.4374 28.1244 45.267 28.6504 45.3596 30.8165C45.4471 28.5536 48.3734 28.1762 49.2759 29.9812L51.543 34.5153L53.81 29.9812C54.507 28.5913 56.782 28.5913 57.479 29.9812L59.7461 34.5153L62.0132 29.9812C63.2289 27.5595 66.894 29.3921 65.6822 31.8157Z" fill="#99D9FD"/>
<path d="M24.6211 16.543H32.813V8.63448C29.7061 9.50469 26.8273 12.3468 24.6211 16.543Z" fill="#00A0FB"/>
<path d="M37.1875 4.36201V4.47768C42.359 5.39616 46.9042 9.76227 49.9235 16.543H59.612C54.2821 9.49061 46.1031 4.97602 37.1875 4.36201Z" fill="#00A0FB"/>
<path d="M10.3867 16.543H20.0752C23.0945 9.76227 27.6397 5.39615 32.8112 4.47754V4.36188C23.8956 4.97602 15.7166 9.49061 10.3867 16.543Z" fill="#00A0FB"/>
<path d="M37.1875 8.63448V16.543H45.3794C43.1732 12.3468 40.2944 9.50469 37.1875 8.63448Z" fill="#00A0FB"/>
<path d="M24.6211 53.457C26.8273 57.6532 29.7061 60.4953 32.813 61.3655V53.457H24.6211Z" fill="#00A0FB"/>
<path d="M37.1875 53.457V61.3655C40.2944 60.4953 43.1732 57.6532 45.3794 53.457H37.1875Z" fill="#00A0FB"/>
<path d="M49.9235 53.4572C46.9042 60.2377 42.359 64.6038 37.1875 65.5225V65.6381C46.1031 65.024 54.2821 60.5094 59.612 53.4572H49.9235Z" fill="#00A0FB"/>
<path d="M20.0752 53.457H10.3867C15.7164 60.5094 23.8955 65.024 32.8112 65.638V65.5223C27.6397 64.6038 23.0945 60.2377 20.0752 53.457Z" fill="#00A0FB"/>
</svg>
