<svg width="54" height="54" viewBox="0 0 54 54" fill="none" xmlns="http://www.w3.org/2000/svg">
<g clip-path="url(#clip0_556_1313)">
<path d="M48.3628 2.92001C47.6243 1.14634 45.9048 0 43.9828 0H10.0209C8.0989 0 6.37944 1.14634 5.64095 2.92001L2.90234 9.49219H51.1015L48.3628 2.92001Z" fill="#99D9FD"/>
<path d="M54 17.6133C54 16.9814 53.878 16.368 53.637 15.7903C53.6362 15.7886 53.6349 15.7872 53.6341 15.7854L52.418 12.8672H1.58203L0.364605 15.7887C0.122027 16.368 0 16.9814 0 17.6133V23.9414C0 25.1614 0.475453 26.2638 1.23441 27.1055C0.475453 27.9471 0 29.0496 0 30.2695V36.5977C0 37.8176 0.475453 38.9201 1.23441 39.7617C0.475453 40.6034 0 41.7058 0 42.9258V49.2539C0 51.871 2.12899 54 4.74609 54H49.2539C51.871 54 54 51.871 54 49.2539V42.9258C54 41.7058 53.5245 40.6034 52.7656 39.7617C53.5245 38.9201 54 37.8176 54 36.5977V30.2695C54 29.0496 53.5245 27.9471 52.7656 27.1055C53.5245 26.2638 54 25.1614 54 23.9414V17.6133ZM7.91016 47.6719C7.03645 47.6719 6.32812 46.9635 6.32812 46.0898C6.32812 45.2159 7.03645 44.5078 7.91016 44.5078C8.78386 44.5078 9.49219 45.2159 9.49219 46.0898C9.49219 46.9635 8.78386 47.6719 7.91016 47.6719ZM7.91016 35.0156C7.03645 35.0156 6.32812 34.3073 6.32812 33.4336C6.32812 32.5597 7.03645 31.8516 7.91016 31.8516C8.78386 31.8516 9.49219 32.5597 9.49219 33.4336C9.49219 34.3073 8.78386 35.0156 7.91016 35.0156ZM7.91016 22.3594C7.03645 22.3594 6.32812 21.651 6.32812 20.7773C6.32812 19.9034 7.03645 19.1953 7.91016 19.1953C8.78386 19.1953 9.49219 19.9034 9.49219 20.7773C9.49219 21.651 8.78386 22.3594 7.91016 22.3594ZM46.0898 47.6719H17.4023C15.3169 47.6719 15.3084 44.5078 17.4023 44.5078H46.0898C48.1753 44.5078 48.1838 47.6719 46.0898 47.6719ZM46.0898 35.0156H17.4023C15.3169 35.0156 15.3084 31.8516 17.4023 31.8516H46.0898C48.1753 31.8516 48.1838 35.0156 46.0898 35.0156ZM46.0898 22.3594H17.4023C15.3169 22.3594 15.3084 19.1953 17.4023 19.1953H46.0898C48.1753 19.1953 48.1838 22.3594 46.0898 22.3594Z" fill="#00A0FB"/>
</g>
<defs>
<clipPath id="clip0_556_1313">
<rect width="54" height="54" fill="white"/>
</clipPath>
</defs>
</svg>
