<svg width="75" height="75" viewBox="0 0 75 75" fill="none" xmlns="http://www.w3.org/2000/svg">
<g clip-path="url(#clip0_556_1302)">
<path d="M74.9981 50.7568C74.9981 41.4499 69.6589 33.1438 61.6623 29.1035C61.414 46.9482 46.9463 61.4159 29.1016 61.6642C33.1419 69.6608 41.448 75 50.7549 75C55.1186 75 59.362 73.8379 63.0905 71.6297L74.8922 74.8941L71.6278 63.0924C73.8359 59.3639 74.9981 55.1205 74.9981 50.7568Z" fill="#99D9FD"/>
<path d="M57.2754 28.6377C57.2754 12.8466 44.4288 0 28.6377 0C12.8466 0 0 12.8466 0 28.6377C0 33.7841 1.36986 38.7949 3.9711 43.194L0.105286 57.1695L14.0814 53.3043C18.4805 55.9055 23.4913 57.2754 28.6377 57.2754C44.4288 57.2754 57.2754 44.4288 57.2754 28.6377ZM24.2432 21.9727H19.8486C19.8486 17.1261 23.7911 13.1836 28.6377 13.1836C33.4843 13.1836 37.4268 17.1261 37.4268 21.9727C37.4268 24.4326 36.3853 26.7969 34.5686 28.4586L30.835 31.8758V35.3027H26.4404V29.9406L31.6017 25.2165C32.5241 24.3725 33.0322 23.2206 33.0322 21.9727C33.0322 19.5494 31.061 17.5781 28.6377 17.5781C26.2144 17.5781 24.2432 19.5494 24.2432 21.9727ZM26.4404 39.6973H30.835V44.0918H26.4404V39.6973Z" fill="#00A0FB"/>
</g>
<defs>
<clipPath id="clip0_556_1302">
<rect width="75" height="75" fill="white"/>
</clipPath>
</defs>
</svg>
