<svg width="83" height="83" viewBox="0 0 83 83" fill="none" xmlns="http://www.w3.org/2000/svg">
<g clip-path="url(#clip0_556_1832)">
<path d="M12.9765 44.1007L7.81812 49.2591C6.39396 50.6832 6.39396 52.9926 7.81812 54.4174C9.24291 55.8416 11.5523 55.8416 12.9765 54.4174L18.1349 49.2591C19.5596 47.8343 19.5596 45.5249 18.1349 44.1007C16.7107 42.6759 14.4013 42.6759 12.9765 44.1007Z" fill="#99D9FD"/>
<path d="M30.1679 61.295L25.0095 66.4534C23.5854 67.8776 23.5854 70.187 25.0095 71.6111C26.4337 73.0359 28.7431 73.0359 30.1679 71.6111L35.3263 66.4534C36.7504 65.0286 36.7504 62.7192 35.3263 61.295C33.9015 59.8702 31.5927 59.8702 30.1679 61.295Z" fill="#99D9FD"/>
<path d="M42.207 76.7696L43.9262 75.0503C45.351 73.6256 45.351 71.3161 43.9262 69.892C42.502 68.4678 40.1926 68.4678 38.7678 69.892L37.0486 71.6112C35.6244 73.036 35.6244 75.3454 37.0486 76.7696C38.4727 78.1944 40.7828 78.1944 42.207 76.7696Z" fill="#99D9FD"/>
<path d="M25.0092 49.259L16.4123 57.8559C14.9876 59.2807 14.9876 61.5901 16.4123 63.0143C17.8365 64.4384 20.1459 64.4384 21.5701 63.0143L30.1676 54.4174C31.5917 52.9926 31.5917 50.6832 30.1676 49.259C28.7428 47.8342 26.434 47.8342 25.0092 49.259Z" fill="#99D9FD"/>
<path d="M31.0287 12.2912L24.7844 5.98095C23.8345 5.03109 22.2951 5.03109 21.3452 5.98095L0.712395 26.6138C-0.237465 27.5637 -0.237465 29.1031 0.712395 30.0529L4.92787 34.3336C6.26211 35.6685 7.26769 37.2953 7.86484 39.0861L8.67665 41.5215L9.53659 40.6616C12.8548 37.344 18.2544 37.344 21.5726 40.6616C22.6238 41.7134 23.3039 42.983 23.6889 44.3204C26.8931 42.662 30.9249 43.1363 33.6086 45.82C36.2922 48.5036 36.7665 52.5355 35.1081 55.7403C36.4455 56.1253 37.7151 56.8041 38.7669 57.8559C40.4514 59.5404 41.2714 61.7618 41.2454 63.9743C43.4586 63.949 45.6794 64.769 47.3638 66.4534C48.2098 67.2994 50.8029 69.8919 50.8029 69.8919C52.2271 71.3167 54.5365 71.3167 55.9607 69.8919C57.3855 68.4678 57.3855 66.1584 55.9607 64.7336L49.943 58.7159C48.9931 57.766 48.9931 56.2266 49.943 55.2768C50.8928 54.3275 52.4323 54.3275 53.3815 55.2768L59.3998 61.2951C60.8239 62.7192 63.134 62.7192 64.5582 61.2951C65.9823 59.8709 65.9823 57.5609 64.5582 56.1367L58.5398 50.1184C57.5906 49.1692 57.5906 47.6298 58.5398 46.6799C59.4897 45.73 61.0297 45.73 61.979 46.6799L67.9973 52.6976C69.4214 54.1217 71.7309 54.1217 73.1557 52.6976C74.5798 51.2734 74.5798 48.964 73.1557 47.5398L58.3663 32.7505C53.6481 35.8705 47.2169 35.3563 43.0654 31.2048C42.1168 30.2562 40.5755 30.2562 39.6269 31.2048C34.8864 35.9452 27.173 35.9452 22.4325 31.2048C19.588 28.3609 19.588 23.7326 22.4325 20.8887L31.0287 12.2912Z" fill="#00A0FB"/>
<path d="M61.6545 5.73779C60.7047 4.78793 59.1653 4.78793 58.2154 5.73779L53.0723 10.881C52.1693 11.784 50.9446 12.2912 49.668 12.2912H40.928C38.9934 12.2912 37.138 13.0599 35.7702 14.4277L25.8708 24.3272C24.9076 25.2903 24.9076 26.8031 25.8708 27.7663C28.7248 30.6203 33.3329 30.6203 36.1869 27.7663C38.7591 25.1941 42.7897 24.9477 45.6412 27.0273C49.4761 29.825 54.5901 29.9959 57.9469 26.6391L58.5396 26.0464L75.2698 42.7766C75.5016 41.9198 75.506 41.013 75.2793 40.1715C74.8861 38.7131 75.4566 36.6405 76.5249 35.5722L82.2874 29.8098C83.2373 28.8599 83.2373 27.3205 82.2874 26.3713L61.6545 5.73779Z" fill="#99D9FD"/>
</g>
<defs>
<clipPath id="clip0_556_1832">
<rect width="83" height="83" fill="white"/>
</clipPath>
</defs>
</svg>
