<svg width="74" height="74" viewBox="0 0 74 74" fill="none" xmlns="http://www.w3.org/2000/svg">
<g clip-path="url(#clip0_556_1803)">
<path d="M20.1581 55.2943C8.37385 51.7481 0 40.6585 0 28.3281C0 12.7881 12.7881 0 28.3281 0C40.6585 0 51.7481 8.37385 55.2943 20.1581C55.7969 21.8268 54.2148 23.3667 52.578 22.8531C50.3657 22.1714 48.041 21.8242 45.6719 21.8242C32.5223 21.8242 21.8242 32.5223 21.8242 45.6719C21.8242 48.041 22.1714 50.3657 22.8531 52.578C23.3646 54.2268 21.8242 55.7925 20.1581 55.2943Z" fill="#2682FF"/>
<path d="M45.6713 74C33.3409 74 22.2513 65.6261 18.7051 53.8419C18.4743 53.0755 18.6861 52.2434 19.2556 51.6781C19.8187 51.1129 20.653 50.9075 21.4214 51.1467C23.6338 51.8286 25.9584 52.1758 28.3276 52.1758C41.4772 52.1758 52.1752 41.4777 52.1752 28.3281C52.1752 25.959 51.8281 23.6343 51.1463 21.422C50.9092 20.6577 51.1145 19.8235 51.6778 19.2562C52.243 18.6887 53.0815 18.4813 53.8415 18.7057C65.6256 22.2519 73.9995 33.3416 73.9995 45.6719C73.9995 61.2119 61.2113 74 45.6713 74Z" fill="#99D9FD"/>
<path d="M56.5117 28.3281C56.5117 25.1275 56.0083 22.0387 54.9382 19.0618C51.9613 17.9917 48.8725 17.4883 45.6719 17.4883C43.5908 17.4883 41.5527 17.7051 39.6014 18.1388L40.4354 21.5204L34.9623 19.6129C33.5312 20.1766 32.1873 20.9137 30.8865 21.694L32.7353 26.5489L27.3744 24.2957C26.247 25.2064 25.2064 26.2469 24.3392 27.3744L26.6821 32.9488L21.694 30.8865C20.9135 32.1438 20.2199 33.5314 19.6129 34.9189L21.5951 40.5889L18.1388 39.6014C17.7051 41.5527 17.4883 43.5908 17.4883 45.6719C17.4883 48.8725 17.9917 51.9613 19.0618 54.9382C22.0387 56.0083 25.1275 56.5117 28.3281 56.5117C30.4092 56.5117 32.4473 56.2949 34.3986 55.8612L33.1299 51.9211L39.0812 54.3871C40.4688 53.7801 41.8562 53.0863 43.1137 52.306L40.8133 46.9988L46.6256 49.6609C47.753 48.7938 48.7936 47.7531 49.7043 46.6258L46.9581 40.6488L52.306 43.1137C53.0865 41.8129 53.8234 40.4688 54.3871 39.0379L51.8873 32.9923L55.8612 34.3986C56.2949 32.4473 56.5117 30.4092 56.5117 28.3281Z" fill="#99D9FD"/>
<path d="M28.3288 56.5117C30.4099 56.5117 32.448 56.2949 34.3993 55.8612L33.1306 51.9211L39.082 54.3871C40.4695 53.7801 41.857 53.0863 43.1144 52.306L40.814 46.9988L46.6263 49.6609C47.7537 48.7937 48.7943 47.7531 49.705 46.6258L46.9588 40.6488L52.3067 43.1136C53.0872 41.8129 53.8241 40.4687 54.3878 39.0379L51.888 32.9923L55.8619 34.3986C56.2956 32.4472 56.5124 30.4092 56.5124 28.3281C56.5124 25.1275 56.009 22.0385 54.9389 19.0618L19.0625 54.9382C22.0393 56.0083 25.1282 56.5117 28.3288 56.5117Z" fill="#6AA9FF"/>
<path d="M39.0831 54.3871C37.5656 54.9941 36.0047 55.5144 34.4004 55.8611L18.1406 39.6014C18.4874 37.9971 19.0077 36.4363 19.6147 34.9187L39.0831 54.3871Z" fill="#2682FF"/>
<path d="M46.627 49.6607C45.543 50.6581 44.3724 51.5252 43.1148 52.3058L21.6953 30.8863C22.4761 29.6287 23.343 28.4581 24.3404 27.3741L46.627 49.6607Z" fill="#2682FF"/>
<path d="M52.3066 43.1135C51.5259 44.3711 50.659 45.5416 49.7049 46.6256L27.375 24.2957C28.459 23.3416 29.6295 22.4747 30.8871 21.694L52.3066 43.1135Z" fill="#2682FF"/>
<path d="M55.8638 34.3986C55.517 36.0029 54.9967 37.5636 54.3897 39.0377L34.9648 19.6129C36.4389 19.0058 37.9999 18.4855 39.604 18.1388L55.8638 34.3986Z" fill="#2682FF"/>
<path d="M34.3994 55.8612C36.0037 55.5145 37.5645 54.9942 39.0821 54.3871L29.3479 44.653L26.2695 47.7313L34.3994 55.8612Z" fill="#2682FF"/>
<path d="M43.1159 52.306C44.3734 51.5252 45.544 50.6583 46.628 49.6609L35.4849 38.5176L32.4062 41.5961L43.1159 52.306Z" fill="#2682FF"/>
<path d="M49.704 46.6256C50.658 45.5416 51.5249 44.371 52.3057 43.1135L41.596 32.4036L38.5391 35.4605L49.704 46.6256Z" fill="#2682FF"/>
<path d="M44.6758 29.3252L54.3883 39.0377C54.9953 37.5636 55.5156 36.0027 55.8624 34.3986L47.7325 26.2687L44.6758 29.3252Z" fill="#2682FF"/>
</g>
<defs>
<clipPath id="clip0_556_1803">
<rect width="74" height="74" fill="white"/>
</clipPath>
</defs>
</svg>
