<svg width="78" height="78" viewBox="0 0 78 78" fill="none" xmlns="http://www.w3.org/2000/svg">
<path fill-rule="evenodd" clip-rule="evenodd" d="M21.9375 31.6875H26C31.8175 31.6875 37.3978 33.9983 41.5122 38.1128C45.6268 42.2273 47.9375 47.8075 47.9375 53.625V71.5C47.9375 72.8455 46.8455 73.9375 45.5 73.9375H32.5C31.1545 73.9375 30.0625 72.8455 30.0625 71.5V53.625C30.0625 52.546 29.6335 51.5158 28.873 50.752C28.1092 49.9915 27.079 49.5625 26 49.5625H21.9375V52C21.9375 52.9555 21.3785 53.8233 20.5075 54.2198C19.6365 54.6163 18.616 54.4635 17.8945 53.833L4.8945 42.458C4.36475 41.9965 4.0625 41.327 4.0625 40.625C4.0625 39.923 4.36475 39.2535 4.8945 38.792L17.8945 27.417C18.616 26.7865 19.6365 26.6338 20.5075 27.0303C21.3785 27.4268 21.9375 28.2945 21.9375 29.25V31.6875Z" fill="#00A0FB"/>
<path fill-rule="evenodd" clip-rule="evenodd" d="M51.1875 31.7038C51.4572 31.694 51.727 31.6875 52 31.6875H56.0625V29.25C56.0625 28.2945 56.6215 27.4268 57.4925 27.0303C58.3635 26.6338 59.384 26.7865 60.1055 27.417L73.1055 38.792C73.6353 39.2535 73.9375 39.923 73.9375 40.625C73.9375 41.327 73.6353 41.9965 73.1055 42.458L60.1055 53.833C59.384 54.4635 58.3635 54.6163 57.4925 54.2198C56.6215 53.8233 56.0625 52.9555 56.0625 52V49.5625H52C51.7238 49.5625 51.454 49.5918 51.1875 49.6438V31.7038Z" fill="#00A0FB"/>
<path fill-rule="evenodd" clip-rule="evenodd" d="M30.0629 28.7657V21.9375H27.6254C26.6699 21.9375 25.8022 21.3785 25.4057 20.5075C25.0092 19.6365 25.1619 18.616 25.7924 17.8945L37.1674 4.8945C37.6289 4.36475 38.2984 4.0625 39.0004 4.0625C39.7024 4.0625 40.3719 4.36475 40.8334 4.8945L52.2084 17.8945C52.8389 18.616 52.9917 19.6365 52.5952 20.5075C52.1987 21.3785 51.3309 21.9375 50.3754 21.9375H47.9379V41.249C46.8232 39.2763 45.4419 37.4465 43.8104 35.815C40.0567 32.0613 35.2369 29.614 30.0629 28.7657Z" fill="#99D9FD"/>
</svg>
